#N canvas 47 74 582 591 12;
#X obj 37 37 inlet;
#X obj 37 69 pack s f;
#X obj 106 12 lb;
#X obj 106 36 f \$0;
#X msg 37 101 read -resize \$1 audio_\$2;
#N canvas 0 22 450 278 (subpatch) 0;
#X array audio_\$0 1 float 2;
#X coords 0 1 1 -1 200 140 1;
#X restore 234 28 graph;
#X obj 37 125 soundfiler;
#X floatatom 37 149 5 0 0 0 - - - 0;
#X obj 254 306 r play-on-off;
#X obj 37 172 outlet;
#X obj 254 422 outlet~;
#X obj 254 328 tabplay~ audio_\$0;
#X obj 367 306 bng 19 250 50 0 empty empty empty 0 -10 0 12 #fcfcfc #000000 #000000;
#X obj 254 375 *~;
#X obj 408 324 catch~ mic_gain;
#X obj 408 348 expr~ $v1-1;
#X obj 408 372 *~ -1;
#X obj 130 154 outlet;
#X connect 0 0 1 0;
#X connect 1 0 4 0;
#X connect 2 0 3 0;
#X connect 3 0 1 1;
#X connect 4 0 6 0;
#X connect 4 0 17 0;
#X connect 6 0 7 0;
#X connect 7 0 9 0;
#X connect 8 0 11 0;
#X connect 11 0 13 0;
#X connect 11 1 12 0;
#X connect 12 0 11 0;
#X connect 13 0 10 0;
#X connect 14 0 15 0;
#X connect 15 0 16 0;
#X connect 16 0 13 1;
