#N canvas 47 74 769 591 12;
#X obj 37 137 inlet;
#X obj 37 169 pack s f;
#X obj 106 112 lb;
#X obj 106 136 f \$0;
#N canvas 0 22 450 278 (subpatch) 0;
#X array audio_\$0_1 198450 float 2;
#X coords 0 1 198450 -1 200 140 1;
#X restore 234 28 graph;
#X obj 37 225 soundfiler;
#X floatatom 37 249 5 0 0 0 - - - 0;
#X obj 254 246 r play-on-off;
#X obj 37 272 outlet;
#X obj 254 552 outlet~;
#N canvas 0 22 450 278 (subpatch) 0;
#X array audio_\$0_2 198450 float 2;
#X coords 0 1 198450 -1 200 140 1 0 0;
#X restore 441 27 graph;
#X msg 37 201 read -resize \$1 audio_\$2_1 audio_\$2_2;
#X obj 254 458 tabplay~ audio_\$0_1;
#X obj 434 552 outlet~;
#X obj 434 458 tabplay~ audio_\$0_2;
#X obj 374 492 bng 19 250 50 0 empty empty empty 0 -10 0 12 #fcfcfc #000000 #000000;
#X obj 290 523 spigot 1;
#X obj 373 518 r loop;
#X msg 162 455 1 100;
#X obj 162 479 line~;
#X obj 254 505 *~;
#X obj 434 505 *~;
#X obj 254 277 t f f;
#X obj 254 378 t b b b;
#X obj 339 377 t b b, f 17;
#X msg 339 431 stop;
#X msg 153 402 0 100;
#X obj 254 318 sel 1 0, f 26;
#X obj 339 404 delay 100;
#X floatatom 333 296 5 0 0 0 - - - 0;
#X obj 407 235 tgl 19 0 empty empty empty 0 -10 0 12 #fcfcfc #000000 #000000 0 1;
#X obj 254 348 bng 19 250 50 0 empty empty empty 0 -10 0 12 #fcfcfc #000000 #000000;
#X obj 341 348 bng 19 250 50 0 empty empty empty 0 -10 0 12 #fcfcfc #000000 #000000;
#X connect 0 0 1 0;
#X connect 1 0 11 0;
#X connect 2 0 3 0;
#X connect 3 0 1 1;
#X connect 5 0 6 0;
#X connect 6 0 8 0;
#X connect 7 0 22 0;
#X connect 11 0 5 0;
#X connect 12 0 20 0;
#X connect 12 1 15 0;
#X connect 14 0 21 0;
#X connect 15 0 16 0;
#X connect 16 0 12 0;
#X connect 16 0 14 0;
#X connect 17 0 16 1;
#X connect 18 0 19 0;
#X connect 19 0 20 1;
#X connect 19 0 21 1;
#X connect 20 0 9 0;
#X connect 21 0 13 0;
#X connect 22 0 27 0;
#X connect 22 1 29 0;
#X connect 23 0 12 0;
#X connect 23 1 14 0;
#X connect 23 2 18 0;
#X connect 24 0 28 0;
#X connect 24 1 26 0;
#X connect 25 0 12 0;
#X connect 25 0 14 0;
#X connect 26 0 19 0;
#X connect 27 0 31 0;
#X connect 27 1 32 0;
#X connect 28 0 25 0;
#X connect 30 0 22 0;
#X connect 31 0 23 0;
#X connect 32 0 24 0;
