#N canvas 0 25 1280 699 12;
#X obj 553 138 adc~;
#X obj 553 162 *~;
#X msg 600 124 \$1 100;
#X obj 600 148 line~;
#X obj 602 56 tgl 19 0 empty empty empty 0 -10 0 12 #fcfcfc #000000 #000000 0 1;
#X obj 747 176 metro 60;
#X obj 8 345 tgl 19 0 empty empty empty 0 -10 0 12 #fcfcfc #000000 #000000 0 1;
#X obj 8 439 pack f 100;
#X obj 8 463 line~;
#X obj 517 302 writesf~;
#X obj 348 563 r mono-data-bank-size;
#X obj 517 218 *~;
#X msg 193 624 open \$1.wav;
#X obj 193 582 f;
#X obj 138 518 sel 0 1;
#X obj 161 554 t b b;
#X msg 161 665 start;
#X msg 138 697 stop;
#X obj 106 608 t b b;
#X obj 106 752 s increment-mono-audio-list;
#X msg 798 462 read mono-audio-number.txt;
#X msg 992 501 write mono-audio-number.txt;
#X obj 766 383 lb;
#X floatatom 765 630 5 0 0 0 - - - 0;
#X obj 766 407 t b b;
#X msg 766 566 0;
#X floatatom 1024 360 5 0 0 0 - - - 0;
#X obj 798 530 text define -k mono-bank-number;
#A set 3;
#X obj 765 606 text get mono-bank-number;
#X obj 1024 477 text set mono-bank-number;
#X obj 992 220 r increment-mono-audio-list;
#X obj 1024 315 count;
#X obj 765 653 s initial-mono-data-bank-size;
#X obj 1043 287 r initial-mono-data-bank-size;
#X obj 992 244 t b b;
#X obj 1024 393 t f f;
#X obj 1052 435 s mono-data-bank-size;
#X obj 8 407 t f f f, f 38;
#X obj 271 495 s mic-control-to-randomize-audio;
#X obj 271 431 t f f;
#X obj 303 457 s play-on-off;
#X obj 518 367 r mono-recording-command;
#X obj 258 716 s mono-recording-command;
#X obj 8 209 spigot 0;
#X obj 97 189 tgl 19 0 empty empty empty 0 -10 0 12 #fcfcfc #000000 #000000 0 1;
#X obj 8 312 change;
#X obj 6 1 keyname;
#X obj 6 25 pack f s;
#X obj 6 79 route Space;
#X obj 7 167 tgl 19 0 empty empty empty 0 -10 0 12 #fcfcfc #000000 #000000 0 1;
#X msg 6 49 \$2 \$1;
#X obj 6 111 sel 0;
#X obj 38 134 sel 1;
#X obj 254 30 sel 1;
#X obj 253 95 spigot;
#X obj 254 62 delay 4500;
#X obj 208 69 t f f;
#X obj 323 28 r mic-reset-time;
#X msg 329 247 open test.wav;
#X msg 329 277 start;
#X msg 329 307 stop;
#X obj 655 283 tabwrite~ array-mono;
#X obj 8 487 throw~ mic_gain;
#X obj 600 12 r mic-control-to-randomize-audio;
#X obj 192 489 tgl 19 0 empty empty empty 0 -10 0 12 #fcfcfc #000000 #000000 0 1;
#X obj 138 463 t f f;
#X obj 76 287 spigot 0;
#X obj 327 100 r mic-preset;
#X msg 327 148 1 0;
#X msg 368 148 0 1;
#X obj 327 172 unpack;
#X obj 160 189 tgl 19 0 empty empty empty 0 -10 0 12 #fcfcfc #000000 #000000 0 1;
#X obj 54 246 r mic-reset-random-control;
#X obj 327 124 sel 2 1 0, f 17;
#X msg 404 149 0 0;
#X connect 0 0 1 0;
#X connect 1 0 11 0;
#X connect 2 0 3 0;
#X connect 3 0 1 1;
#X connect 3 0 11 1;
#X connect 4 0 5 0;
#X connect 4 0 2 0;
#X connect 5 0 61 0;
#X connect 6 0 37 0;
#X connect 7 0 8 0;
#X connect 8 0 62 0;
#X connect 10 0 13 1;
#X connect 11 0 9 0;
#X connect 11 0 61 0;
#X connect 12 0 42 0;
#X connect 13 0 12 0;
#X connect 14 0 18 0;
#X connect 14 1 15 0;
#X connect 15 0 16 0;
#X connect 15 1 13 0;
#X connect 16 0 42 0;
#X connect 17 0 42 0;
#X connect 18 0 19 0;
#X connect 18 1 17 0;
#X connect 20 0 27 0;
#X connect 21 0 27 0;
#X connect 22 0 24 0;
#X connect 23 0 32 0;
#X connect 24 0 25 0;
#X connect 24 1 20 0;
#X connect 25 0 28 0;
#X connect 26 0 35 0;
#X connect 28 0 23 0;
#X connect 30 0 34 0;
#X connect 31 0 26 0;
#X connect 33 0 31 0;
#X connect 34 0 21 0;
#X connect 34 1 31 0;
#X connect 35 0 29 0;
#X connect 35 1 36 0;
#X connect 37 0 7 0;
#X connect 37 1 65 0;
#X connect 37 2 39 0;
#X connect 39 0 38 0;
#X connect 39 1 40 0;
#X connect 41 0 9 0;
#X connect 43 0 45 0;
#X connect 44 0 43 1;
#X connect 45 0 6 0;
#X connect 46 0 47 0;
#X connect 46 1 47 1;
#X connect 47 0 50 0;
#X connect 48 0 51 0;
#X connect 49 0 56 0;
#X connect 49 0 43 0;
#X connect 50 0 48 0;
#X connect 51 1 52 0;
#X connect 52 0 49 0;
#X connect 53 0 55 0;
#X connect 54 0 49 0;
#X connect 55 0 54 0;
#X connect 56 0 53 0;
#X connect 56 1 54 1;
#X connect 57 0 55 1;
#X connect 58 0 9 0;
#X connect 59 0 9 0;
#X connect 60 0 9 0;
#X connect 63 0 4 0;
#X connect 65 0 14 0;
#X connect 65 1 64 0;
#X connect 66 0 45 0;
#X connect 67 0 73 0;
#X connect 68 0 70 0;
#X connect 69 0 70 0;
#X connect 70 0 44 0;
#X connect 70 1 71 0;
#X connect 71 0 66 1;
#X connect 72 0 66 0;
#X connect 73 0 68 0;
#X connect 73 1 69 0;
#X connect 73 2 74 0;
#X connect 74 0 70 0;
