#N canvas 792 23 437 701 12;
#X obj 94 6 lb;
#X text 784 54 preset-average-distance-of-sound-boxes in m (meters);
#X text 784 74 amplitude_difference and mic-calibration in dB (decibels);
#X obj 6 47 delay 100;
#X msg 6 71 else and cyclone libraries are required for this patch to work!!!!;
#X obj 6 109 print libraries-required:;
#X obj 94 28 t b b;
#X text 786 99 delay-calibration is multiplying the delay value of time it takes to reach from one soundbox to the adjacent soundbox \; default is 100 but can be any positive value (I recomend values of either 1 or higher);
#X text 1517 60 preset-average-distance-of-sound-boxes in m (meters);
#X text 1517 80 amplitude_difference and mic-calibration in dB (decibels);
#X text 1519 105 delay-calibration is multiplying the delay value of time it takes to reach from one soundbox to the adjacent soundbox \; default is 100 but can be any positive value (I recomend values of either 1 or higher);
#X msg 484 47 \; amplitude-difference 10 \; mic-calibration 20 \; preset-average-distance-of-sound-boxes 5 \; delay-calibration 100 \; time_randomization 3 \; load-new-files bang \; init-mic-preset 1 \; preset-out-command 1 \; mic-reset-time 4500 \;;
#X msg 1217 53 \; amplitude-difference 10 \; mic-calibration 20 \; preset-average-distance-of-sound-boxes 5 \; delay-calibration 100 \; time_randomization 3 \; load-new-files bang \; init-mic-preset 0 \; preset-out-command 0 \; mic-reset-time 4500 \;;
#X obj 327 272 r mic-preset;
#X obj 327 296 sel 0 1 2, f 82;
#X msg 327 410 \; init-mic-preset label mic-preset_off;
#X msg 517 360 \; init-mic-preset label mic-preset_control;
#X msg 740 321 \; init-mic-preset label mic-preset_random;
#X text 797 175 init-mic-preset 0 = off \, 1 = control via Space key \, 3 = random on and off;
#X connect 0 0 6 0;
#X connect 3 0 4 0;
#X connect 4 0 5 0;
#X connect 6 0 3 0;
#X connect 6 1 12 0;
#X connect 13 0 14 0;
#X connect 14 0 15 0;
#X connect 14 1 16 0;
#X connect 14 2 17 0;
