#N canvas 0 23 1280 699 12;
#X declare -lib else;
#X declare -lib cyclone;
#X obj 874 79 declare -lib else;
#X obj 874 102 declare -lib cyclone;
#N canvas 0 23 1280 699 audio-treatment 0;
#X obj 7 53 bng 19 250 50 0 empty empty empty 0 -10 0 12 #fcfcfc #000000 #000000;
#X obj 7 77 s load-new-files;
#X obj 7 7 r play-on-off;
#X obj 7 31 sel 0;
#N canvas 0 23 1280 699 stereo-files-treatment 0;
#X obj 3 404 audio-loader-estereo;
#X obj 81 146 bng 19 250 50 0 empty empty empty 0 -10 0 12 #fcfcfc #000000 #000000;
#X msg 81 170 clear;
#X floatatom 3 152 5 0 0 0 - - - 0;
#X obj 3 98 t b f, f 8;
#X obj 3 198 pack f f;
#X obj 3 55 t b b b b b;
#X msg 3 222 \$2 \$1;
#X obj 3 246 route 0 1 2 3, f 28;
#X floatatom 3 428 5 0 0 0 - - - 0;
#X obj 3 451 bng 19 250 50 0 empty empty empty 0 -10 0 12 #fcfcfc #000000 #000000;
#X obj 3 128 urn 3;
#X obj 3 74 counter 1 0 2;
#X obj 3 3 r load-new-files;
#X obj 3 175 + 1;
#N canvas 68 97 774 491 pairing~ 0;
#X obj 640 38 inlet;
#X text 607 16 pairing selection;
#X obj 7 352 inlet~;
#X obj 47 371 *~;
#X obj 77 371 *~;
#X obj 107 371 *~;
#X obj 137 371 *~;
#X text 10 460 channel 1;
#X text 130 460 channel 2;
#X text 250 460 channel 3;
#X text 370 460 channel 4;
#X obj 10 434 throw~ channel_1;
#X obj 130 434 throw~ channel_2;
#X obj 250 434 throw~ channel_3;
#X obj 370 434 throw~ channel_4;
#X obj 567 352 inlet~;
#X obj 407 371 *~;
#X obj 437 371 *~;
#X obj 467 371 *~;
#X obj 497 371 *~;
#X text -1 332 Left;
#X text 568 333 Right;
#X obj 99 240 pack f 10;
#X obj 99 264 line~;
#X obj 172 240 pack f 10;
#X obj 172 264 line~;
#X obj 246 240 pack f 10;
#X obj 246 264 line~;
#X obj 319 240 pack f 10;
#X obj 319 264 line~;
#X obj 100 88 sel 1 2 3 4;
#X msg 100 192 1 0 0 0;
#X msg 118 172 0 1 0 0;
#X msg 137 152 0 0 1 0;
#X msg 155 132 0 0 0 1;
#X obj 100 57 unpack, f 44;
#X obj 99 216 unpack f f f f, f 32;
#X obj 404 240 pack f 10;
#X obj 404 264 line~;
#X obj 477 240 pack f 10;
#X obj 477 264 line~;
#X obj 551 240 pack f 10;
#X obj 551 264 line~;
#X obj 624 240 pack f 10;
#X obj 624 264 line~;
#X obj 405 88 sel 1 2 3 4;
#X msg 405 192 1 0 0 0;
#X msg 423 172 0 1 0 0;
#X msg 442 152 0 0 1 0;
#X msg 460 132 0 0 0 1;
#X obj 404 216 unpack f f f f, f 32;
#X connect 0 0 35 0;
#X connect 2 0 3 0;
#X connect 2 0 4 0;
#X connect 2 0 6 0;
#X connect 2 0 5 0;
#X connect 3 0 11 0;
#X connect 4 0 12 0;
#X connect 5 0 13 0;
#X connect 6 0 14 0;
#X connect 15 0 16 0;
#X connect 15 0 17 0;
#X connect 15 0 19 0;
#X connect 15 0 18 0;
#X connect 16 0 11 0;
#X connect 17 0 12 0;
#X connect 18 0 13 0;
#X connect 19 0 14 0;
#X connect 22 0 23 0;
#X connect 23 0 3 1;
#X connect 24 0 25 0;
#X connect 25 0 4 1;
#X connect 26 0 27 0;
#X connect 27 0 5 1;
#X connect 28 0 29 0;
#X connect 29 0 6 1;
#X connect 30 0 31 0;
#X connect 30 1 32 0;
#X connect 30 2 33 0;
#X connect 30 3 34 0;
#X connect 31 0 36 0;
#X connect 32 0 36 0;
#X connect 33 0 36 0;
#X connect 34 0 36 0;
#X connect 35 0 30 0;
#X connect 35 1 45 0;
#X connect 36 0 22 0;
#X connect 36 1 24 0;
#X connect 36 2 26 0;
#X connect 36 3 28 0;
#X connect 37 0 38 0;
#X connect 38 0 16 1;
#X connect 39 0 40 0;
#X connect 40 0 17 1;
#X connect 41 0 42 0;
#X connect 42 0 18 1;
#X connect 43 0 44 0;
#X connect 44 0 19 1;
#X connect 45 0 46 0;
#X connect 45 1 47 0;
#X connect 45 2 48 0;
#X connect 45 3 49 0;
#X connect 46 0 50 0;
#X connect 47 0 50 0;
#X connect 48 0 50 0;
#X connect 49 0 50 0;
#X connect 50 0 37 0;
#X connect 50 1 39 0;
#X connect 50 2 41 0;
#X connect 50 3 43 0;
#X restore 71 427 pd pairing~;
#X f 20;
#X obj 228 404 audio-loader-estereo;
#X floatatom 228 428 5 0 0 0 - - - 0;
#X obj 228 451 bng 19 250 50 0 empty empty empty 0 -10 0 12 #fcfcfc #000000 #000000;
#N canvas 68 97 774 491 pairing~ 0;
#X obj 640 38 inlet;
#X text 607 16 pairing selection;
#X obj 7 352 inlet~;
#X obj 47 371 *~;
#X obj 77 371 *~;
#X obj 107 371 *~;
#X obj 137 371 *~;
#X text 10 460 channel 1;
#X text 130 460 channel 2;
#X text 250 460 channel 3;
#X text 370 460 channel 4;
#X obj 10 434 throw~ channel_1;
#X obj 130 434 throw~ channel_2;
#X obj 250 434 throw~ channel_3;
#X obj 370 434 throw~ channel_4;
#X obj 567 352 inlet~;
#X obj 407 371 *~;
#X obj 437 371 *~;
#X obj 467 371 *~;
#X obj 497 371 *~;
#X text -1 332 Left;
#X text 568 333 Right;
#X obj 99 240 pack f 10;
#X obj 99 264 line~;
#X obj 172 240 pack f 10;
#X obj 172 264 line~;
#X obj 246 240 pack f 10;
#X obj 246 264 line~;
#X obj 319 240 pack f 10;
#X obj 319 264 line~;
#X obj 100 88 sel 1 2 3 4;
#X msg 100 192 1 0 0 0;
#X msg 118 172 0 1 0 0;
#X msg 137 152 0 0 1 0;
#X msg 155 132 0 0 0 1;
#X obj 100 57 unpack, f 44;
#X obj 99 216 unpack f f f f, f 32;
#X obj 404 240 pack f 10;
#X obj 404 264 line~;
#X obj 477 240 pack f 10;
#X obj 477 264 line~;
#X obj 551 240 pack f 10;
#X obj 551 264 line~;
#X obj 624 240 pack f 10;
#X obj 624 264 line~;
#X obj 405 88 sel 1 2 3 4;
#X msg 405 192 1 0 0 0;
#X msg 423 172 0 1 0 0;
#X msg 442 152 0 0 1 0;
#X msg 460 132 0 0 0 1;
#X obj 404 216 unpack f f f f, f 32;
#X connect 0 0 35 0;
#X connect 2 0 3 0;
#X connect 2 0 4 0;
#X connect 2 0 6 0;
#X connect 2 0 5 0;
#X connect 3 0 11 0;
#X connect 4 0 12 0;
#X connect 5 0 13 0;
#X connect 6 0 14 0;
#X connect 15 0 16 0;
#X connect 15 0 17 0;
#X connect 15 0 19 0;
#X connect 15 0 18 0;
#X connect 16 0 11 0;
#X connect 17 0 12 0;
#X connect 18 0 13 0;
#X connect 19 0 14 0;
#X connect 22 0 23 0;
#X connect 23 0 3 1;
#X connect 24 0 25 0;
#X connect 25 0 4 1;
#X connect 26 0 27 0;
#X connect 27 0 5 1;
#X connect 28 0 29 0;
#X connect 29 0 6 1;
#X connect 30 0 31 0;
#X connect 30 1 32 0;
#X connect 30 2 33 0;
#X connect 30 3 34 0;
#X connect 31 0 36 0;
#X connect 32 0 36 0;
#X connect 33 0 36 0;
#X connect 34 0 36 0;
#X connect 35 0 30 0;
#X connect 35 1 45 0;
#X connect 36 0 22 0;
#X connect 36 1 24 0;
#X connect 36 2 26 0;
#X connect 36 3 28 0;
#X connect 37 0 38 0;
#X connect 38 0 16 1;
#X connect 39 0 40 0;
#X connect 40 0 17 1;
#X connect 41 0 42 0;
#X connect 42 0 18 1;
#X connect 43 0 44 0;
#X connect 44 0 19 1;
#X connect 45 0 46 0;
#X connect 45 1 47 0;
#X connect 45 2 48 0;
#X connect 45 3 49 0;
#X connect 46 0 50 0;
#X connect 47 0 50 0;
#X connect 48 0 50 0;
#X connect 49 0 50 0;
#X connect 50 0 37 0;
#X connect 50 1 39 0;
#X connect 50 2 41 0;
#X connect 50 3 43 0;
#X restore 296 427 pd pairing~;
#X f 20;
#X obj 453 404 audio-loader-estereo;
#X floatatom 453 428 5 0 0 0 - - - 0;
#X obj 453 451 bng 19 250 50 0 empty empty empty 0 -10 0 12 #fcfcfc #000000 #000000;
#N canvas 68 97 774 491 pairing~ 0;
#X obj 640 38 inlet;
#X text 607 16 pairing selection;
#X obj 7 352 inlet~;
#X obj 47 371 *~;
#X obj 77 371 *~;
#X obj 107 371 *~;
#X obj 137 371 *~;
#X text 10 460 channel 1;
#X text 130 460 channel 2;
#X text 250 460 channel 3;
#X text 370 460 channel 4;
#X obj 10 434 throw~ channel_1;
#X obj 130 434 throw~ channel_2;
#X obj 250 434 throw~ channel_3;
#X obj 370 434 throw~ channel_4;
#X obj 567 352 inlet~;
#X obj 407 371 *~;
#X obj 437 371 *~;
#X obj 467 371 *~;
#X obj 497 371 *~;
#X text -1 332 Left;
#X text 568 333 Right;
#X obj 99 240 pack f 10;
#X obj 99 264 line~;
#X obj 172 240 pack f 10;
#X obj 172 264 line~;
#X obj 246 240 pack f 10;
#X obj 246 264 line~;
#X obj 319 240 pack f 10;
#X obj 319 264 line~;
#X obj 100 88 sel 1 2 3 4;
#X msg 100 192 1 0 0 0;
#X msg 118 172 0 1 0 0;
#X msg 137 152 0 0 1 0;
#X msg 155 132 0 0 0 1;
#X obj 100 57 unpack, f 44;
#X obj 99 216 unpack f f f f, f 32;
#X obj 404 240 pack f 10;
#X obj 404 264 line~;
#X obj 477 240 pack f 10;
#X obj 477 264 line~;
#X obj 551 240 pack f 10;
#X obj 551 264 line~;
#X obj 624 240 pack f 10;
#X obj 624 264 line~;
#X obj 405 88 sel 1 2 3 4;
#X msg 405 192 1 0 0 0;
#X msg 423 172 0 1 0 0;
#X msg 442 152 0 0 1 0;
#X msg 460 132 0 0 0 1;
#X obj 404 216 unpack f f f f, f 32;
#X connect 0 0 35 0;
#X connect 2 0 3 0;
#X connect 2 0 4 0;
#X connect 2 0 6 0;
#X connect 2 0 5 0;
#X connect 3 0 11 0;
#X connect 4 0 12 0;
#X connect 5 0 13 0;
#X connect 6 0 14 0;
#X connect 15 0 16 0;
#X connect 15 0 17 0;
#X connect 15 0 19 0;
#X connect 15 0 18 0;
#X connect 16 0 11 0;
#X connect 17 0 12 0;
#X connect 18 0 13 0;
#X connect 19 0 14 0;
#X connect 22 0 23 0;
#X connect 23 0 3 1;
#X connect 24 0 25 0;
#X connect 25 0 4 1;
#X connect 26 0 27 0;
#X connect 27 0 5 1;
#X connect 28 0 29 0;
#X connect 29 0 6 1;
#X connect 30 0 31 0;
#X connect 30 1 32 0;
#X connect 30 2 33 0;
#X connect 30 3 34 0;
#X connect 31 0 36 0;
#X connect 32 0 36 0;
#X connect 33 0 36 0;
#X connect 34 0 36 0;
#X connect 35 0 30 0;
#X connect 35 1 45 0;
#X connect 36 0 22 0;
#X connect 36 1 24 0;
#X connect 36 2 26 0;
#X connect 36 3 28 0;
#X connect 37 0 38 0;
#X connect 38 0 16 1;
#X connect 39 0 40 0;
#X connect 40 0 17 1;
#X connect 41 0 42 0;
#X connect 42 0 18 1;
#X connect 43 0 44 0;
#X connect 44 0 19 1;
#X connect 45 0 46 0;
#X connect 45 1 47 0;
#X connect 45 2 48 0;
#X connect 45 3 49 0;
#X connect 46 0 50 0;
#X connect 47 0 50 0;
#X connect 48 0 50 0;
#X connect 49 0 50 0;
#X connect 50 0 37 0;
#X connect 50 1 39 0;
#X connect 50 2 41 0;
#X connect 50 3 43 0;
#X restore 521 427 pd pairing~;
#X f 20;
#X obj 679 404 audio-loader-estereo;
#X floatatom 679 428 5 0 0 0 - - - 0;
#X obj 679 451 bng 19 250 50 0 empty empty empty 0 -10 0 12 #fcfcfc #000000 #000000;
#N canvas 68 97 774 491 pairing~ 0;
#X obj 640 38 inlet;
#X text 607 16 pairing selection;
#X obj 7 352 inlet~;
#X obj 47 371 *~;
#X obj 77 371 *~;
#X obj 107 371 *~;
#X obj 137 371 *~;
#X text 10 460 channel 1;
#X text 130 460 channel 2;
#X text 250 460 channel 3;
#X text 370 460 channel 4;
#X obj 10 434 throw~ channel_1;
#X obj 130 434 throw~ channel_2;
#X obj 250 434 throw~ channel_3;
#X obj 370 434 throw~ channel_4;
#X obj 567 352 inlet~;
#X obj 407 371 *~;
#X obj 437 371 *~;
#X obj 467 371 *~;
#X obj 497 371 *~;
#X text -1 332 Left;
#X text 568 333 Right;
#X obj 99 240 pack f 10;
#X obj 99 264 line~;
#X obj 172 240 pack f 10;
#X obj 172 264 line~;
#X obj 246 240 pack f 10;
#X obj 246 264 line~;
#X obj 319 240 pack f 10;
#X obj 319 264 line~;
#X obj 100 88 sel 1 2 3 4;
#X msg 100 192 1 0 0 0;
#X msg 118 172 0 1 0 0;
#X msg 137 152 0 0 1 0;
#X msg 155 132 0 0 0 1;
#X obj 100 57 unpack, f 44;
#X obj 99 216 unpack f f f f, f 32;
#X obj 404 240 pack f 10;
#X obj 404 264 line~;
#X obj 477 240 pack f 10;
#X obj 477 264 line~;
#X obj 551 240 pack f 10;
#X obj 551 264 line~;
#X obj 624 240 pack f 10;
#X obj 624 264 line~;
#X obj 405 88 sel 1 2 3 4;
#X msg 405 192 1 0 0 0;
#X msg 423 172 0 1 0 0;
#X msg 442 152 0 0 1 0;
#X msg 460 132 0 0 0 1;
#X obj 404 216 unpack f f f f, f 32;
#X connect 0 0 35 0;
#X connect 2 0 3 0;
#X connect 2 0 4 0;
#X connect 2 0 6 0;
#X connect 2 0 5 0;
#X connect 3 0 11 0;
#X connect 4 0 12 0;
#X connect 5 0 13 0;
#X connect 6 0 14 0;
#X connect 15 0 16 0;
#X connect 15 0 17 0;
#X connect 15 0 19 0;
#X connect 15 0 18 0;
#X connect 16 0 11 0;
#X connect 17 0 12 0;
#X connect 18 0 13 0;
#X connect 19 0 14 0;
#X connect 22 0 23 0;
#X connect 23 0 3 1;
#X connect 24 0 25 0;
#X connect 25 0 4 1;
#X connect 26 0 27 0;
#X connect 27 0 5 1;
#X connect 28 0 29 0;
#X connect 29 0 6 1;
#X connect 30 0 31 0;
#X connect 30 1 32 0;
#X connect 30 2 33 0;
#X connect 30 3 34 0;
#X connect 31 0 36 0;
#X connect 32 0 36 0;
#X connect 33 0 36 0;
#X connect 34 0 36 0;
#X connect 35 0 30 0;
#X connect 35 1 45 0;
#X connect 36 0 22 0;
#X connect 36 1 24 0;
#X connect 36 2 26 0;
#X connect 36 3 28 0;
#X connect 37 0 38 0;
#X connect 38 0 16 1;
#X connect 39 0 40 0;
#X connect 40 0 17 1;
#X connect 41 0 42 0;
#X connect 42 0 18 1;
#X connect 43 0 44 0;
#X connect 44 0 19 1;
#X connect 45 0 46 0;
#X connect 45 1 47 0;
#X connect 45 2 48 0;
#X connect 45 3 49 0;
#X connect 46 0 50 0;
#X connect 47 0 50 0;
#X connect 48 0 50 0;
#X connect 49 0 50 0;
#X connect 50 0 37 0;
#X connect 50 1 39 0;
#X connect 50 2 41 0;
#X connect 50 3 43 0;
#X restore 747 427 pd pairing~;
#X f 20;
#X obj 252 128 tgl 19 0 empty empty empty 0 -10 0 12 #fcfcfc #000000 #000000 0 1;
#X obj 326 109 bng 19 250 50 0 empty empty empty 0 -10 0 12 #fcfcfc #000000 #000000;
#N canvas 0 23 1280 699 pairing-selection 0;
#X obj 37 37 inlet;
#X obj 138 220 gate 2;
#X floatatom 138 244 5 0 0 0 - - - 0;
#X floatatom 179 244 5 0 0 0 - - - 0;
#X obj 37 60 bng 19 250 50 0 empty empty empty 0 -10 0 12 #fcfcfc #000000 #000000;
#X msg 68 181 clear;
#X obj 47 84 delay 5;
#X obj 138 144 counter 1 1 2;
#X obj 249 262 t b f;
#X obj 36 158 urn 4;
#X obj 68 139 t b a;
#X obj 249 289 ==, f 5;
#X obj 138 427 pack;
#X obj 249 312 t b f;
#X obj 180 331 + 0;
#X obj 138 270 t f f;
#X obj 180 352 % 4;
#X obj 36 181 +;
#X obj 180 373 +;
#X obj 180 394 t b f;
#X obj 36 115 t b b, f 30;
#X obj 138 451 outlet;
#X text 293 292 this makes sure that the pairing selected never is of only one box \, in other words \, pairing to the same box;
#X connect 0 0 4 0;
#X connect 1 0 2 0;
#X connect 1 1 3 0;
#X connect 2 0 15 0;
#X connect 3 0 8 0;
#X connect 3 0 14 0;
#X connect 4 0 6 0;
#X connect 4 0 20 0;
#X connect 5 0 10 0;
#X connect 6 0 20 0;
#X connect 7 0 1 0;
#X connect 8 0 11 0;
#X connect 8 1 11 1;
#X connect 9 0 17 0;
#X connect 9 1 5 0;
#X connect 10 0 9 0;
#X connect 10 1 9 0;
#X connect 11 0 13 0;
#X connect 12 0 21 0;
#X connect 13 0 14 0;
#X connect 13 1 14 1;
#X connect 14 0 16 0;
#X connect 15 0 12 0;
#X connect 15 1 11 0;
#X connect 16 0 18 0;
#X connect 17 0 1 1;
#X connect 18 0 19 0;
#X connect 19 0 12 0;
#X connect 19 1 12 1;
#X connect 20 0 9 0;
#X connect 20 1 7 0;
#X restore 252 228 pd pairing-selection;
#X f 21;
#X obj 252 202 t b f, f 22;
#X obj 208 247 gate 4, f 97;
#X obj 252 152 metro 12;
#X obj 403 228 f;
#X obj 78 109 r stereo-data-bank-size;
#X obj 3 29 t b b, f 36;
#X msg 153 310 st-\$1.wav;
#X msg 105 330 st-\$1.wav;
#X msg 53 350 st-\$1.wav;
#X msg 3 370 st-\$1.wav;
#X text 343 151 complete time of pairing is of aprox 48 ms;
#X text 346 107 turns of pairing process;
#X obj 710 22 bng 19 250 50 0 empty empty empty 0 -10 0 12 #fcfcfc #000000 #000000;
#X obj 710 70 print;
#X msg 710 46 stereo files change;
#X obj 252 180 cyclone/counter 1 4;
#X connect 0 0 9 0;
#X connect 0 1 15 0;
#X connect 0 2 15 1;
#X connect 1 0 2 0;
#X connect 2 0 11 0;
#X connect 3 0 14 0;
#X connect 4 0 11 0;
#X connect 4 1 5 1;
#X connect 5 0 7 0;
#X connect 6 0 1 0;
#X connect 6 1 12 0;
#X connect 6 2 12 0;
#X connect 6 3 12 0;
#X connect 6 4 12 0;
#X connect 7 0 8 0;
#X connect 8 0 40 0;
#X connect 8 1 39 0;
#X connect 8 2 38 0;
#X connect 8 3 37 0;
#X connect 9 0 10 0;
#X connect 11 0 3 0;
#X connect 11 1 1 0;
#X connect 12 0 4 0;
#X connect 13 0 36 0;
#X connect 13 0 43 0;
#X connect 14 0 5 0;
#X connect 16 0 17 0;
#X connect 16 1 19 0;
#X connect 16 2 19 1;
#X connect 17 0 18 0;
#X connect 20 0 21 0;
#X connect 20 1 23 0;
#X connect 20 2 23 1;
#X connect 21 0 22 0;
#X connect 24 0 25 0;
#X connect 24 1 27 0;
#X connect 24 2 27 1;
#X connect 25 0 26 0;
#X connect 28 0 33 0;
#X connect 29 0 28 0;
#X connect 30 0 32 1;
#X connect 31 0 30 0;
#X connect 31 1 34 0;
#X connect 32 0 15 2;
#X connect 32 1 19 2;
#X connect 32 2 23 2;
#X connect 32 3 27 2;
#X connect 33 0 46 0;
#X connect 34 0 32 0;
#X connect 35 0 11 1;
#X connect 36 0 6 0;
#X connect 36 1 28 0;
#X connect 37 0 24 0;
#X connect 38 0 20 0;
#X connect 39 0 16 0;
#X connect 40 0 0 0;
#X connect 43 0 45 0;
#X connect 45 0 44 0;
#X connect 46 0 31 0;
#X connect 46 3 29 0;
#X restore 483 197 pd stereo-files-treatment;
#X text 1010 642 doesn't work.... yet \; needs more nuance;
#N canvas 0 23 1280 699 define-delay-time 0;
#X msg 66 50 343;
#X obj 66 144 * 1000;
#X floatatom 66 168 5 0 0 0 - - - 0;
#X floatatom 13 169 5 0 0 0 - average-distance-of-sound-boxes - 0;
#X obj 13 192 /, f 8;
#X floatatom 13 216 12 0 0 0 - - - 0;
#X obj 13 267 * 1000;
#X obj 13 291 * 1000;
#X floatatom 13 315 5 0 0 1 us - - 0;
#X obj 13 236 t f f, f 13;
#X floatatom 101 287 10 0 0 0 - - - 0;
#X obj 101 263 * 100;
#X obj 101 310 v time_difference;
#X obj 13 4 lb;
#X obj 13 29 t b b, f 8;
#X obj 362 70 s average-distance-of-sound-boxes;
#X obj 71 7 bng 19 250 50 0 empty empty empty 0 -10 0 12 #fcfcfc #000000 #000000;
#X obj 362 26 inlet;
#X text 94 50 m/s = average speed of sound;
#X text 98 328 defines delay reference in ms;
#X obj 140 206 r delay-calibration;
#X obj 140 230 moses 0;
#X text 290 209 delay calibration - must be defined by positiva values \; default is 100 times the time to reach each sound box from the adjacent sound box \; this value is for the prototype and can be altered using the variable "delay-calibration" \; for this simply use a send object to this variable connected from a loadbang object;
#X connect 0 0 1 0;
#X connect 1 0 2 0;
#X connect 2 0 4 1;
#X connect 3 0 4 0;
#X connect 4 0 5 0;
#X connect 5 0 9 0;
#X connect 6 0 7 0;
#X connect 7 0 8 0;
#X connect 9 0 6 0;
#X connect 9 1 11 0;
#X connect 10 0 12 0;
#X connect 11 0 10 0;
#X connect 13 0 14 0;
#X connect 14 1 0 0;
#X connect 16 0 14 0;
#X connect 17 0 15 0;
#X connect 20 0 21 0;
#X connect 21 1 11 1;
#X restore 481 74 pd define-delay-time;
#X obj 481 50 inlet;
#X text 477 28 average distance in meters of sound boxes;
#N canvas 0 23 1280 699 mono-files-treatment 0;
#X obj 81 146 bng 19 250 50 0 empty empty empty 0 -10 0 12 #fcfcfc #000000 #000000;
#X msg 81 170 clear;
#X floatatom 3 152 5 0 0 0 - - - 0;
#X obj 3 98 t b f, f 8;
#X obj 3 198 pack f f;
#X obj 3 55 t b b b b b;
#X msg 3 222 \$2 \$1;
#X obj 3 246 route 0 1 2 3, f 28;
#X floatatom 3 508 5 0 0 0 - - - 0;
#X obj 3 531 bng 19 250 50 0 empty empty empty 0 -10 0 12 #fcfcfc #000000 #000000;
#X msg 3 370 \$1.wav;
#X msg 53 350 \$1.wav;
#X msg 105 330 \$1.wav;
#X msg 153 310 \$1.wav;
#X obj 3 128 urn 3;
#X obj 3 3 r load-new-files;
#X obj 3 175 + 1;
#X floatatom 228 508 5 0 0 0 - - - 0;
#X obj 228 531 bng 19 250 50 0 empty empty empty 0 -10 0 12 #fcfcfc #000000 #000000;
#X floatatom 453 508 5 0 0 0 - - - 0;
#X obj 453 531 bng 19 250 50 0 empty empty empty 0 -10 0 12 #fcfcfc #000000 #000000;
#X floatatom 679 508 5 0 0 0 - - - 0;
#X obj 679 531 bng 19 250 50 0 empty empty empty 0 -10 0 12 #fcfcfc #000000 #000000;
#X obj 3 29 t b b, f 51;
#X obj 3 484 audio-loader;
#X obj 228 484 audio-loader;
#X obj 453 484 audio-loader;
#X obj 679 484 audio-loader;
#X obj 78 109 r mono-data-bank-size;
#X obj 84 512 spatialize~;
#X obj 309 512 spatialize~;
#X obj 534 512 spatialize~;
#X obj 760 512 spatialize~;
#N canvas 0 23 1280 699 movement-define 0;
#X obj 97 90 t b;
#X obj 97 114 random 10;
#X obj 97 138 moses 6, f 64;
#X floatatom 97 256 7 0 0 0 - - - 0;
#X obj 97 469 pack f 100;
#X obj 97 287 t f b;
#X obj 164 310 random 10;
#X obj 164 334 + 1;
#X obj 164 358 * 10;
#X obj 164 382 t f b;
#X obj 164 446 *;
#X obj 200 408 random 25;
#X obj 200 432 + 1;
#X obj 97 493 line~;
#X obj 97 517 phasor~;
#X obj 97 601 expr~ 2*$v1*Pi;
#X obj 97 186 random 20;
#X obj 97 210 + 1;
#X obj 97 234 / 100;
#X obj 142 52 bng 19 250 50 0 empty empty empty 0 -10 0 12 #fcfcfc #000000 #000000;
#X msg 241 191 0;
#X obj 209 43 t b b;
#X obj 97 625 expr~ $v1+0*Pi;
#X obj 207 625 expr~ $v1+0.5*Pi, f 19;
#X obj 347 625 expr~ $v1+1*Pi;
#X obj 457 625 expr~ $v1+1.5*Pi, f 19;
#X obj 207 601 expr~ 2*$v1*Pi;
#X obj 347 601 expr~ 2*$v1*Pi;
#X obj 457 601 expr~ 2*$v1*Pi;
#X obj 97 162 t b b, f 32;
#X obj 51 9 inlet bang;
#N canvas 0 23 1280 701 define-pi 0;
#X msg 42 35 3;
#X obj 42 59 expr $f1+sin($f1);
#X obj 42 83 expr $f1+sin($f1);
#X obj 42 107 expr $f1+sin($f1);
#X obj 42 131 expr $f1+sin($f1);
#X floatatom 42 155 10 0 0 0 - - - 0;
#X obj 42 178 s pi;
#X msg 172 34 3;
#X obj 172 58 expr $f1+sin($f1);
#X obj 172 82 expr $f1+sin($f1);
#X obj 172 106 expr $f1+sin($f1);
#X obj 172 130 expr $f1+sin($f1);
#X floatatom 172 208 5 0 0 0 - - - 0;
#X obj 172 157 t b f;
#X obj 172 184 v Pi;
#X obj 255 15 lb;
#X connect 0 0 1 0;
#X connect 1 0 2 0;
#X connect 2 0 3 0;
#X connect 3 0 4 0;
#X connect 4 0 5 0;
#X connect 5 0 6 0;
#X connect 7 0 8 0;
#X connect 8 0 9 0;
#X connect 9 0 10 0;
#X connect 10 0 11 0;
#X connect 11 0 13 0;
#X connect 13 0 14 0;
#X connect 13 1 14 0;
#X connect 14 0 12 0;
#X connect 15 0 7 0;
#X connect 15 0 0 0;
#X restore 905 37 pd define-pi;
#X obj 224 13 lb;
#X obj 276 181 s reset-speeds;
#X floatatom 541 257 7 0 0 0 - - - 0;
#X obj 541 470 pack f 100;
#X obj 541 288 t f b;
#X obj 608 311 random 10;
#X obj 608 335 + 1;
#X obj 608 359 * 10;
#X obj 608 383 t f b;
#X obj 608 447 *;
#X obj 644 409 random 25;
#X obj 644 433 + 1;
#X obj 541 211 + 1;
#X floatatom 711 257 7 0 0 0 - - - 0;
#X obj 711 470 pack f 100;
#X obj 711 288 t f b;
#X obj 778 311 random 10;
#X obj 778 335 + 1;
#X obj 778 359 * 10;
#X obj 778 383 t f b;
#X obj 778 447 *;
#X obj 814 409 random 25;
#X obj 814 433 + 1;
#X obj 711 211 + 1;
#X floatatom 881 257 7 0 0 0 - - - 0;
#X obj 881 470 pack f 100;
#X obj 881 288 t f b;
#X obj 948 311 random 10;
#X obj 948 335 + 1;
#X obj 948 359 * 10;
#X obj 948 383 t f b;
#X obj 948 447 *;
#X obj 984 409 random 25;
#X obj 984 433 + 1;
#X obj 881 211 + 1;
#X floatatom 1051 257 7 0 0 0 - - - 0;
#X obj 1051 470 pack f 100;
#X obj 1051 288 t f b;
#X obj 1118 311 random 10;
#X obj 1118 335 + 1;
#X obj 1118 359 * 10;
#X obj 1118 383 t f b;
#X obj 1118 447 *;
#X obj 1154 409 random 25;
#X obj 1154 433 + 1;
#X obj 1051 211 + 1;
#X obj 541 494 line~;
#X obj 711 494 line~;
#X obj 881 494 line~;
#X obj 1051 494 line~;
#X obj 424 451 r reset-speeds;
#X msg 424 475 1 1000;
#X obj 97 559 *~;
#X obj 207 559 *~;
#X obj 347 559 *~;
#X obj 457 559 *~;
#X obj 541 187 random 60;
#X obj 541 235 / 30;
#X obj 711 187 random 60;
#X obj 881 187 random 60;
#X obj 1051 187 random 60;
#X obj 711 235 / 30;
#X obj 881 235 / 30;
#X obj 1051 235 / 30;
#X obj 542 163 t b b b b, f 73;
#X obj 97 649 outlet~;
#X obj 207 649 outlet~;
#X obj 347 649 outlet~;
#X obj 457 649 outlet~;
#X obj 356 440 lb;
#X connect 0 0 1 0;
#X connect 1 0 2 0;
#X connect 2 0 29 0;
#X connect 2 1 96 0;
#X connect 3 0 5 0;
#X connect 4 0 13 0;
#X connect 5 0 4 0;
#X connect 5 1 6 0;
#X connect 6 0 7 0;
#X connect 7 0 8 0;
#X connect 8 0 9 0;
#X connect 9 0 10 0;
#X connect 9 1 11 0;
#X connect 10 0 4 1;
#X connect 11 0 12 0;
#X connect 12 0 10 1;
#X connect 13 0 14 0;
#X connect 14 0 84 0;
#X connect 14 0 85 0;
#X connect 14 0 86 0;
#X connect 14 0 87 0;
#X connect 15 0 22 0;
#X connect 16 0 17 0;
#X connect 17 0 18 0;
#X connect 18 0 3 0;
#X connect 19 0 0 0;
#X connect 20 0 17 0;
#X connect 21 0 19 0;
#X connect 21 1 20 0;
#X connect 22 0 97 0;
#X connect 23 0 98 0;
#X connect 24 0 99 0;
#X connect 25 0 100 0;
#X connect 26 0 23 0;
#X connect 27 0 24 0;
#X connect 28 0 25 0;
#X connect 29 0 16 0;
#X connect 29 1 33 0;
#X connect 30 0 0 0;
#X connect 32 0 21 0;
#X connect 34 0 36 0;
#X connect 35 0 78 0;
#X connect 36 0 35 0;
#X connect 36 1 37 0;
#X connect 37 0 38 0;
#X connect 38 0 39 0;
#X connect 39 0 40 0;
#X connect 40 0 41 0;
#X connect 40 1 42 0;
#X connect 41 0 35 1;
#X connect 42 0 43 0;
#X connect 43 0 41 1;
#X connect 44 0 89 0;
#X connect 45 0 47 0;
#X connect 46 0 79 0;
#X connect 47 0 46 0;
#X connect 47 1 48 0;
#X connect 48 0 49 0;
#X connect 49 0 50 0;
#X connect 50 0 51 0;
#X connect 51 0 52 0;
#X connect 51 1 53 0;
#X connect 52 0 46 1;
#X connect 53 0 54 0;
#X connect 54 0 52 1;
#X connect 55 0 93 0;
#X connect 56 0 58 0;
#X connect 57 0 80 0;
#X connect 58 0 57 0;
#X connect 58 1 59 0;
#X connect 59 0 60 0;
#X connect 60 0 61 0;
#X connect 61 0 62 0;
#X connect 62 0 63 0;
#X connect 62 1 64 0;
#X connect 63 0 57 1;
#X connect 64 0 65 0;
#X connect 65 0 63 1;
#X connect 66 0 94 0;
#X connect 67 0 69 0;
#X connect 68 0 81 0;
#X connect 69 0 68 0;
#X connect 69 1 70 0;
#X connect 70 0 71 0;
#X connect 71 0 72 0;
#X connect 72 0 73 0;
#X connect 73 0 74 0;
#X connect 73 1 75 0;
#X connect 74 0 68 1;
#X connect 75 0 76 0;
#X connect 76 0 74 1;
#X connect 77 0 95 0;
#X connect 78 0 84 1;
#X connect 79 0 85 1;
#X connect 80 0 86 1;
#X connect 81 0 87 1;
#X connect 82 0 83 0;
#X connect 83 0 78 0;
#X connect 83 0 81 0;
#X connect 83 0 80 0;
#X connect 83 0 79 0;
#X connect 84 0 15 0;
#X connect 85 0 26 0;
#X connect 86 0 27 0;
#X connect 87 0 28 0;
#X connect 88 0 44 0;
#X connect 89 0 34 0;
#X connect 90 0 55 0;
#X connect 91 0 66 0;
#X connect 92 0 77 0;
#X connect 93 0 45 0;
#X connect 94 0 56 0;
#X connect 95 0 67 0;
#X connect 96 0 88 0;
#X connect 96 1 90 0;
#X connect 96 2 91 0;
#X connect 96 3 92 0;
#X connect 101 0 83 0;
#X restore 357 322 pd movement-define;
#X obj 357 161 random 2;
#X obj 357 260 sel 0;
#X obj 850 279 bng 19 250 50 0 empty empty empty 0 -10 0 12 #fcfcfc #000000 #000000;
#X msg 850 303 no movement change;
#X obj 850 327 print;
#X obj 357 296 t b b;
#X obj 700 315 bng 19 250 50 0 empty empty empty 0 -10 0 12 #fcfcfc #000000 #000000;
#X obj 700 363 print;
#X msg 700 339 movement change;
#X obj 710 22 bng 19 250 50 0 empty empty empty 0 -10 0 12 #fcfcfc #000000 #000000;
#X obj 710 70 print;
#X msg 710 46 mono files change;
#X obj 3 74 counter 1 0 3;
#X obj 60 584 print 1;
#X obj 260 584 print 2;
#X obj 512 572 print 3;
#X obj 712 572 print 4;
#X floatatom 142 140 5 0 0 0 - - - 0;
#X connect 0 0 1 0;
#X connect 1 0 14 0;
#X connect 2 0 16 0;
#X connect 3 0 14 0;
#X connect 3 1 4 1;
#X connect 4 0 6 0;
#X connect 5 1 46 0;
#X connect 5 2 46 0;
#X connect 5 3 46 0;
#X connect 5 4 46 0;
#X connect 6 0 7 0;
#X connect 7 0 10 0;
#X connect 7 1 11 0;
#X connect 7 2 12 0;
#X connect 7 3 13 0;
#X connect 8 0 9 0;
#X connect 10 0 24 0;
#X connect 11 0 25 0;
#X connect 12 0 26 0;
#X connect 13 0 27 0;
#X connect 14 0 2 0;
#X connect 14 1 0 0;
#X connect 15 0 23 0;
#X connect 15 0 43 0;
#X connect 16 0 4 0;
#X connect 17 0 18 0;
#X connect 19 0 20 0;
#X connect 21 0 22 0;
#X connect 23 0 5 0;
#X connect 23 1 34 0;
#X connect 24 0 8 0;
#X connect 24 1 47 0;
#X connect 24 2 29 0;
#X connect 25 0 17 0;
#X connect 25 1 48 0;
#X connect 25 2 30 0;
#X connect 26 0 19 0;
#X connect 26 1 49 0;
#X connect 26 2 31 0;
#X connect 27 0 21 0;
#X connect 27 1 50 0;
#X connect 27 2 32 0;
#X connect 28 0 14 1;
#X connect 28 0 51 0;
#X connect 33 0 29 1;
#X connect 33 1 30 1;
#X connect 33 2 31 1;
#X connect 33 3 32 1;
#X connect 34 0 35 0;
#X connect 35 0 39 0;
#X connect 35 1 36 0;
#X connect 36 0 37 0;
#X connect 37 0 38 0;
#X connect 39 0 33 0;
#X connect 39 1 40 0;
#X connect 40 0 42 0;
#X connect 42 0 41 0;
#X connect 43 0 45 0;
#X connect 45 0 44 0;
#X connect 46 0 3 0;
#X restore 483 176 pd mono-files-treatment;
#X obj 483 154 mono-mic-recording;
#N canvas 0 23 1280 699 audio-randomization 0;
#X obj 140 435 s play-on-off;
#X obj 137 165 t b b b;
#X obj 158 269 delay;
#X obj 322 156 t b b, f 14;
#X obj 322 204 + 1;
#X obj 414 188 random 60;
#X obj 414 212 / 60;
#X obj 321 132 bng 19 250 50 0 empty empty empty 0 -10 0 12 #fcfcfc #000000 #000000;
#X obj 322 228 +;
#X floatatom 322 282 5 0 0 0 - - - 0;
#X obj 322 305 * 60000;
#X floatatom 322 329 10 0 0 0 - - - 0;
#X obj 322 180 random 3;
#X obj 138 300 tgl 19 0 empty empty empty 0 -10 0 12 #fcfcfc #000000 #000000 0 1;
#X obj 70 136 bng 19 250 50 0 empty empty empty 0 -10 0 12 #fcfcfc #000000 #000000;
#X obj 162 379 spigot 1;
#X obj 215 312 tgl 19 0 empty empty empty 0 -10 0 12 #fcfcfc #000000 #000000 0 1;
#X obj 92 433 sel 0;
#X obj 26 256 delay 111;
#X obj 76 90 sel 0;
#X obj 83 20 r mic-control-to-randomize-audio;
#X obj 127 406 t f f;
#X obj 83 44 t f f, f 19;
#X obj 214 178 == 0;
#X obj 322 255 / 1;
#X obj 461 162 r time_randomization;
#X obj 390 55 loadbang;
#X connect 1 0 13 0;
#X connect 1 1 2 0;
#X connect 1 2 7 0;
#X connect 2 0 13 0;
#X connect 3 0 12 0;
#X connect 3 1 5 0;
#X connect 4 0 8 0;
#X connect 5 0 6 0;
#X connect 6 0 8 1;
#X connect 7 0 3 0;
#X connect 8 0 24 0;
#X connect 9 0 10 0;
#X connect 10 0 11 0;
#X connect 11 0 2 1;
#X connect 12 0 4 0;
#X connect 13 0 15 0;
#X connect 14 0 1 0;
#X connect 15 0 21 0;
#X connect 16 0 15 1;
#X connect 17 0 18 0;
#X connect 18 0 14 0;
#X connect 19 0 14 0;
#X connect 20 0 22 0;
#X connect 21 0 17 0;
#X connect 21 1 0 0;
#X connect 22 0 19 0;
#X connect 22 1 23 0;
#X connect 23 0 16 0;
#X connect 24 0 9 0;
#X connect 25 0 12 1;
#X connect 26 0 14 0;
#X restore 7 100 pd audio-randomization;
#X text 615 154 <- microfone controle \, audio-bank update;
#X text 656 175 <- mono file loading and spatialization;
#X text 669 197 <- stereo file loading and sound box pairing;
#N canvas 47 74 450 300 length-idea-for-randomization 0;
#X obj 174 486 pack f f f f, f 88;
#X floatatom 174 534 10 0 0 0 - - - 0;
#X obj 143 520 bng 19 250 50 0 empty empty empty 0 -10 0 12 #fcfcfc #000000 #000000;
#X obj 174 623 s length;
#X obj 174 578 / 48;
#X obj 174 510 expr ($f1*$f2*$f3*$f4);
#X obj 136 457 bng 19 250 50 0 empty empty empty 0 -10 0 12 #fcfcfc #000000 #000000;
#X connect 0 0 5 0;
#X connect 1 0 4 0;
#X connect 2 0 1 0;
#X connect 4 0 3 0;
#X connect 5 0 1 0;
#X connect 6 0 0 0;
#X restore 1015 623 pd length-idea-for-randomization;
#X connect 0 0 1 0;
#X connect 2 0 3 0;
#X connect 3 0 0 0;
#X connect 7 0 6 0;
#X restore 401 344 pd audio-treatment;
#X obj 164 506 out4~;
#X floatatom 401 319 5 0 0 1 m preset-average-distance-of-sound-boxes - 0;
#X text 303 301 average distance in meters of sound boxes;
#N canvas 0 22 450 278 (subpatch) 0;
#X array array-mono 1024 float 0;
#X coords 0 1 1023 -1 200 140 1 0 0;
#X restore 16 30 graph;
#X text 695 55 change presets ->>>>>>>>>;
#X obj 175 412 catch~ channel_1;
#X obj 204 432 catch~ channel_2;
#X obj 233 452 catch~ channel_3;
#X obj 262 472 catch~ channel_4;
#X obj 349 184 tgl 19 0 mic-preset init-mic-preset start 0 -10 0 12 #fcfcfc #000000 #000000 0 1;
#X obj 21 388 r preset-out-command;
#X obj 21 460 line;
#X obj 20 487 prepend set;
#X obj 21 414 sel 1;
#X msg 21 438 1 1000 10;
#X obj 874 56 presets;
#X obj 591 491 env~;
#X obj 591 593 s mic-on-off;
#X obj 591 539 change;
#X floatatom 644 493 5 0 0 1 dB\ \ \ <-mic-calibration mic-calibration - 0;
#X text 718 508 if audio-input to soundboxes is over this value in dB \, the microfone gain is turned off;
#X obj 591 563 tgl 19 0 empty empty empty 0 -10 0 12 #fcfcfc #000000 #000000 0 1;
#X obj 591 515 >= 20;
#X obj 525 153 tgl 19 0 empty mic-control-to-randomize-audio empty 0 -10 0 12 #fcfcfc #000000 #000000 0 1;
#X text 548 155 <-mic /off;
#X connect 4 0 2 0;
#X connect 8 0 3 0;
#X connect 9 0 3 1;
#X connect 10 0 3 2;
#X connect 11 0 3 3;
#X connect 13 0 16 0;
#X connect 14 0 15 0;
#X connect 15 0 3 0;
#X connect 16 0 17 0;
#X connect 17 0 14 0;
#X connect 19 0 25 0;
#X connect 21 0 24 0;
#X connect 22 0 25 1;
#X connect 24 0 20 0;
#X connect 25 0 21 0;
