#N canvas 0 23 1280 699 12;
#X obj 3 185 cos~;
#X obj 3 207 +~ 1.23;
#X obj 3 231 /~ 2;
#X obj 3 255 expr~ tanh($v1);
#X obj 3 309 pow~ 2;
#X obj 3 333 +~;
#X obj 3 357 sqrt~;
#X obj 3 381 *~ 10;
#X obj 3 405 *~ -1;
#X obj 3 429 dbtorms~;
#X obj 123 207 +~ 1.23;
#X obj 123 231 /~ 2;
#X obj 123 255 expr~ tanh($v1);
#X obj 123 309 pow~ 2;
#X obj 123 185 sin~;
#X obj 75 352 expr~ ($v1*time_difference)+1;
#X obj 303 185 cos~;
#X obj 303 207 +~ 1.23;
#X obj 303 231 /~ 2;
#X obj 303 255 expr~ tanh($v1);
#X obj 303 309 pow~ 2;
#X obj 303 333 +~;
#X obj 303 357 sqrt~;
#X obj 303 381 *~ 10;
#X obj 303 405 *~ -1;
#X obj 303 429 dbtorms~;
#X obj 423 207 +~ 1.23;
#X obj 423 231 /~ 2;
#X obj 423 255 expr~ tanh($v1);
#X obj 423 309 pow~ 2;
#X obj 423 185 sin~;
#X obj 385 352 expr~ ($v1*time_difference)+1;
#X obj 303 282 -~ 0;
#X obj 423 282 -~ 1;
#X obj 603 185 cos~;
#X obj 603 207 +~ 1.23;
#X obj 603 231 /~ 2;
#X obj 603 255 expr~ tanh($v1);
#X obj 603 309 pow~ 2;
#X obj 603 333 +~;
#X obj 603 357 sqrt~;
#X obj 603 381 *~ 10;
#X obj 603 405 *~ -1;
#X obj 603 429 dbtorms~;
#X obj 723 207 +~ 1.23;
#X obj 723 231 /~ 2;
#X obj 723 255 expr~ tanh($v1);
#X obj 723 309 pow~ 2;
#X obj 723 185 sin~;
#X obj 685 352 expr~ ($v1*time_difference)+1;
#X obj 603 282 -~ 1;
#X obj 723 282 -~ 0;
#X obj 903 185 cos~;
#X obj 903 207 +~ 1.23;
#X obj 903 231 /~ 2;
#X obj 903 255 expr~ tanh($v1);
#X obj 903 309 pow~ 2;
#X obj 903 333 +~;
#X obj 903 357 sqrt~;
#X obj 903 381 *~ 10;
#X obj 903 405 *~ -1;
#X obj 903 429 dbtorms~;
#X obj 1023 207 +~ 1.23;
#X obj 1023 231 /~ 2;
#X obj 1023 255 expr~ tanh($v1);
#X obj 1023 309 pow~ 2;
#X obj 1023 185 sin~;
#X obj 985 352 expr~ ($v1*time_difference)+1;
#X obj 903 282 -~ 1;
#X obj 1023 282 -~ 1;
#X obj 37 55 inlet~;
#X obj 75 426 delread4~ delay_\$0 0;
#X obj 75 460 *~;
#X obj 385 426 delread4~ delay_\$0 0;
#X obj 385 460 *~;
#X obj 685 429 delread4~ delay_\$0 0;
#X obj 685 463 *~;
#X obj 985 429 delread4~ delay_\$0 0;
#X obj 985 463 *~;
#X obj 37 79 delwrite~ delay_\$0 20;
#X text 71 510 channel 1;
#X text 378 503 channel 2;
#X text 686 508 channel 3;
#X text 976 509 channel 4;
#X obj 75 484 throw~ channel_1;
#X obj 385 484 throw~ channel_2;
#X obj 685 487 throw~ channel_3;
#X obj 985 487 throw~ channel_4;
#X text 27 32 mono audio input;
#X obj 203 166 inlet~;
#X text 209 144 position signal;
#X obj 1201 362 r amplitude-difference;
#X connect 0 0 1 0;
#X connect 1 0 2 0;
#X connect 2 0 3 0;
#X connect 3 0 4 0;
#X connect 4 0 5 0;
#X connect 5 0 6 0;
#X connect 5 0 15 0;
#X connect 6 0 7 0;
#X connect 7 0 8 0;
#X connect 8 0 9 0;
#X connect 9 0 72 1;
#X connect 10 0 11 0;
#X connect 11 0 12 0;
#X connect 12 0 13 0;
#X connect 13 0 5 1;
#X connect 14 0 10 0;
#X connect 15 0 71 0;
#X connect 16 0 17 0;
#X connect 17 0 18 0;
#X connect 18 0 19 0;
#X connect 19 0 32 0;
#X connect 20 0 21 0;
#X connect 21 0 22 0;
#X connect 21 0 31 0;
#X connect 22 0 23 0;
#X connect 23 0 24 0;
#X connect 24 0 25 0;
#X connect 25 0 74 1;
#X connect 26 0 27 0;
#X connect 27 0 28 0;
#X connect 28 0 33 0;
#X connect 29 0 21 1;
#X connect 30 0 26 0;
#X connect 31 0 73 0;
#X connect 32 0 20 0;
#X connect 33 0 29 0;
#X connect 34 0 35 0;
#X connect 35 0 36 0;
#X connect 36 0 37 0;
#X connect 37 0 50 0;
#X connect 38 0 39 0;
#X connect 39 0 40 0;
#X connect 39 0 49 0;
#X connect 40 0 41 0;
#X connect 41 0 42 0;
#X connect 42 0 43 0;
#X connect 43 0 76 1;
#X connect 44 0 45 0;
#X connect 45 0 46 0;
#X connect 46 0 51 0;
#X connect 47 0 39 1;
#X connect 48 0 44 0;
#X connect 49 0 75 0;
#X connect 50 0 38 0;
#X connect 51 0 47 0;
#X connect 52 0 53 0;
#X connect 53 0 54 0;
#X connect 54 0 55 0;
#X connect 55 0 68 0;
#X connect 56 0 57 0;
#X connect 57 0 58 0;
#X connect 57 0 67 0;
#X connect 58 0 59 0;
#X connect 59 0 60 0;
#X connect 60 0 61 0;
#X connect 61 0 78 1;
#X connect 62 0 63 0;
#X connect 63 0 64 0;
#X connect 64 0 69 0;
#X connect 65 0 57 1;
#X connect 66 0 62 0;
#X connect 67 0 77 0;
#X connect 68 0 56 0;
#X connect 69 0 65 0;
#X connect 70 0 79 0;
#X connect 71 0 72 0;
#X connect 72 0 84 0;
#X connect 73 0 74 0;
#X connect 74 0 85 0;
#X connect 75 0 76 0;
#X connect 76 0 86 0;
#X connect 77 0 78 0;
#X connect 78 0 87 0;
#X connect 89 0 14 0;
#X connect 89 0 66 0;
#X connect 89 0 52 0;
#X connect 89 0 48 0;
#X connect 89 0 34 0;
#X connect 89 0 30 0;
#X connect 89 0 16 0;
#X connect 89 0 0 0;
#X connect 91 0 59 1;
#X connect 91 0 41 1;
#X connect 91 0 23 1;
#X connect 91 0 7 1;
