#N canvas 0 23 1280 699 12;
#X obj 577 175 adc~, f 10;
#X obj 577 213 *~;
#X obj 709 57 r mic-on-off;
#X obj 709 105 change;
#X msg 709 129 \$1 100;
#X obj 709 194 line~;
#X obj 768 153 tgl 19 0 empty empty empty 0 -10 0 12 #fcfcfc #000000 #000000 0 1;
#X obj 768 177 metro 60;
#X obj 709 81 == 1;
#X floatatom 768 128 5 0 0 0 - - - 0;
#X obj 38 129 keyname;
#X obj 38 153 pack f s;
#X msg 38 177 \$2 \$1;
#X obj 38 241 route Space;
#X obj 38 265 tgl 19 0 empty empty empty 0 -10 0 12 #fcfcfc #000000 #000000 0 1;
#X obj 38 329 pack f 100;
#X obj 38 353 line~;
#X obj 38 297 t f f, f 19;
#X obj 378 453 r stereo-data-bank-size;
#X obj 577 268 *~;
#X obj 929 249 catch~ mic_gain_\$0;
#X obj 38 377 throw~ mic_gain_\$0;
#X obj 223 472 f;
#X obj 168 408 sel 0 1;
#X obj 191 444 t b b;
#X msg 191 555 start;
#X msg 168 587 stop;
#X obj 136 498 t b b;
#X obj 136 642 s increment-stereo-audio-list;
#X msg 766 482 read stereo-audio-number.txt;
#X msg 960 507 write stereo-audio-number.txt;
#X obj 766 403 lb;
#X floatatom 574 504 5 0 0 0 - - - 0;
#X obj 766 427 t b b;
#X msg 575 440 0;
#X floatatom 1126 360 5 0 0 0 - - - 0;
#X obj 767 550 text define -k stereo-bank-number;
#A set 3;
#X obj 574 480 text get stereo-bank-number;
#X obj 1126 477 text set stereo-bank-number;
#X obj 1080 220 r increment-stereo-audio-list;
#X obj 1175 315 count;
#X obj 574 587 s initial-stereo-data-bank-size;
#X obj 1153 247 r initial-stereo-data-bank-size;
#X obj 1080 244 t b b;
#X obj 1126 393 t f f;
#X obj 1154 435 s stereo-data-bank-size;
#X msg 223 514 open st-\$1.wav;
#X obj 768 232 tabwrite~ array-stereo;
#X obj 577 352 writesf~ 2;
#X obj 644 213 *~;
#X obj 644 268 *~;
#X obj 398 259 r st-recording-command;
#X obj 288 606 s st-recording-command;
#X obj 38 209 spigot 0;
#X connect 0 0 1 0;
#X connect 0 1 49 0;
#X connect 1 0 19 0;
#X connect 1 0 47 0;
#X connect 2 0 8 0;
#X connect 3 0 4 0;
#X connect 3 0 9 0;
#X connect 4 0 5 0;
#X connect 5 0 1 1;
#X connect 5 0 49 1;
#X connect 6 0 7 0;
#X connect 7 0 47 0;
#X connect 8 0 3 0;
#X connect 9 0 6 0;
#X connect 10 0 11 0;
#X connect 10 1 11 1;
#X connect 11 0 12 0;
#X connect 12 0 53 0;
#X connect 13 0 14 0;
#X connect 14 0 17 0;
#X connect 15 0 16 0;
#X connect 16 0 21 0;
#X connect 17 0 15 0;
#X connect 17 1 23 0;
#X connect 18 0 22 1;
#X connect 19 0 48 0;
#X connect 20 0 19 1;
#X connect 20 0 50 1;
#X connect 22 0 46 0;
#X connect 23 0 27 0;
#X connect 23 1 24 0;
#X connect 24 0 25 0;
#X connect 24 1 22 0;
#X connect 25 0 52 0;
#X connect 26 0 52 0;
#X connect 27 0 28 0;
#X connect 27 1 26 0;
#X connect 29 0 36 0;
#X connect 30 0 36 0;
#X connect 31 0 33 0;
#X connect 32 0 41 0;
#X connect 33 0 34 0;
#X connect 33 1 29 0;
#X connect 34 0 37 0;
#X connect 35 0 44 0;
#X connect 37 0 32 0;
#X connect 39 0 43 0;
#X connect 40 0 35 0;
#X connect 42 0 40 0;
#X connect 43 0 30 0;
#X connect 43 1 40 0;
#X connect 44 0 38 0;
#X connect 44 1 45 0;
#X connect 46 0 52 0;
#X connect 49 0 50 0;
#X connect 49 0 47 0;
#X connect 50 0 48 1;
#X connect 51 0 48 0;
#X connect 53 0 13 0;
