#N canvas 47 74 450 300 12;
#X obj 37 37 adc~;
#X obj 37 61 writesf~;
#X msg 136 20 open test.wav;
#X msg 136 40 start;
#X msg 136 60 stop;
#X connect 0 0 1 0;
#X connect 2 0 1 0;
#X connect 3 0 1 0;
#X connect 4 0 1 0;
